M48
; DRILL file {KiCad 5.1.2} date Tue 21 May 2019 07:32:45 PM CDT
; FORMAT={-:-/ absolute / inch / decimal}
; #@! TF.CreationDate,2019-05-21T19:32:45-05:00
; #@! TF.GenerationSoftware,Kicad,Pcbnew,5.1.2
; #@! TF.FileFunction,NonPlated,1,2,NPTH
FMAT,2
INCH
T1C0.0433
%
G90
G05
T1
X4.4862Y-5.1476
X4.4862Y-5.3287
X4.4843Y-3.1063
X4.4843Y-3.2874
X5.6358Y-5.1476
X5.6358Y-5.3287
X6.7835Y-3.1063
X6.7835Y-3.2874
X5.6339Y-4.126
X5.6339Y-4.3071
X5.6339Y-2.5965
X5.6339Y-2.7776
X5.6339Y-2.0866
X5.6339Y-2.2677
X6.7835Y-2.5965
X6.7835Y-2.7776
X4.4823Y-3.6142
X4.4823Y-3.7953
X5.6319Y-3.6142
X5.6319Y-3.7953
X6.7835Y-2.0866
X6.7835Y-2.2677
X6.7815Y-3.6142
X6.7815Y-3.7953
X4.4843Y-2.0866
X4.4843Y-2.2677
X6.7835Y-4.126
X6.7835Y-4.3071
X4.4843Y-2.5965
X4.4843Y-2.7776
X5.6339Y-4.6358
X5.6339Y-4.8169
X4.4843Y-4.126
X4.4843Y-4.3071
X6.7854Y-5.1476
X6.7854Y-5.3287
X6.7835Y-4.6358
X6.7835Y-4.8169
X4.4843Y-4.6358
X4.4843Y-4.8169
X5.6339Y-3.1063
X5.6339Y-3.2874
T0
M30
