G04 #@! TF.GenerationSoftware,KiCad,Pcbnew,5.1.2*
G04 #@! TF.CreationDate,2019-05-21T19:32:40-05:00*
G04 #@! TF.ProjectId,PlasticFrog,506c6173-7469-4634-9672-6f672e6b6963,rev?*
G04 #@! TF.SameCoordinates,Original*
G04 #@! TF.FileFunction,Profile,NP*
%FSLAX46Y46*%
G04 Gerber Fmt 4.6, Leading zero omitted, Abs format (unit mm)*
G04 Created by KiCad (PCBNEW 5.1.2) date 2019-05-21 19:32:40*
%MOMM*%
%LPD*%
G04 APERTURE LIST*
%ADD10C,0.050000*%
G04 APERTURE END LIST*
D10*
X146250000Y-64350000D02*
X146250000Y-61850000D01*
X87850000Y-61850000D02*
X117000000Y-61850000D01*
X117000000Y-74750000D02*
X87850000Y-74750000D01*
X87850000Y-64350000D02*
X87850000Y-61850000D01*
X175400000Y-74750000D02*
X146250000Y-74750000D01*
X146250000Y-74750000D02*
X146250000Y-72250000D01*
X90900000Y-64350000D02*
X87850000Y-64350000D01*
X117000000Y-61850000D02*
X117000000Y-74750000D01*
X175400000Y-61850000D02*
X175400000Y-74750000D01*
X120100000Y-72250000D02*
X120100000Y-64350000D01*
X146200000Y-74750000D02*
X117050000Y-74750000D01*
X146250000Y-61850000D02*
X175400000Y-61850000D01*
X149300000Y-64350000D02*
X146250000Y-64350000D01*
X87850000Y-74750000D02*
X87850000Y-72250000D01*
X87850000Y-72250000D02*
X90900000Y-72250000D01*
X117050000Y-72250000D02*
X120100000Y-72250000D01*
X149300000Y-72250000D02*
X149300000Y-64350000D01*
X117050000Y-64350000D02*
X117050000Y-61850000D01*
X120100000Y-64350000D02*
X117050000Y-64350000D01*
X117050000Y-61850000D02*
X146200000Y-61850000D01*
X146250000Y-72250000D02*
X149300000Y-72250000D01*
X117050000Y-74750000D02*
X117050000Y-72250000D01*
X146200000Y-61850000D02*
X146200000Y-74750000D01*
X90900000Y-72250000D02*
X90900000Y-64350000D01*
X175400000Y-61800000D02*
X146250000Y-61800000D01*
X175400000Y-48900000D02*
X175400000Y-61800000D01*
X117000000Y-61800000D02*
X87850000Y-61800000D01*
X90900000Y-51400000D02*
X87850000Y-51400000D01*
X87850000Y-61800000D02*
X87850000Y-59300000D01*
X146250000Y-59300000D02*
X149300000Y-59300000D01*
X146250000Y-61800000D02*
X146250000Y-59300000D01*
X146200000Y-61800000D02*
X117050000Y-61800000D01*
X146250000Y-48900000D02*
X175400000Y-48900000D01*
X117050000Y-51400000D02*
X117050000Y-48900000D01*
X149300000Y-59300000D02*
X149300000Y-51400000D01*
X117000000Y-48900000D02*
X117000000Y-61800000D01*
X87850000Y-59300000D02*
X90900000Y-59300000D01*
X117050000Y-48900000D02*
X146200000Y-48900000D01*
X120100000Y-59300000D02*
X120100000Y-51400000D01*
X87850000Y-51400000D02*
X87850000Y-48900000D01*
X149300000Y-51400000D02*
X146250000Y-51400000D01*
X90900000Y-59300000D02*
X90900000Y-51400000D01*
X117050000Y-59300000D02*
X120100000Y-59300000D01*
X146250000Y-51400000D02*
X146250000Y-48900000D01*
X87850000Y-48900000D02*
X117000000Y-48900000D01*
X120100000Y-51400000D02*
X117050000Y-51400000D01*
X146200000Y-48900000D02*
X146200000Y-61800000D01*
X117050000Y-61800000D02*
X117050000Y-59300000D01*
X146250000Y-124050000D02*
X149300000Y-124050000D01*
X87850000Y-129100000D02*
X87850000Y-126600000D01*
X117050000Y-113650000D02*
X146200000Y-113650000D01*
X149300000Y-137000000D02*
X149300000Y-129100000D01*
X175400000Y-139500000D02*
X146250000Y-139500000D01*
X117000000Y-126600000D02*
X117000000Y-139500000D01*
X87850000Y-126600000D02*
X117000000Y-126600000D01*
X146200000Y-126600000D02*
X146200000Y-139500000D01*
X117050000Y-139500000D02*
X117050000Y-137000000D01*
X117050000Y-126600000D02*
X146200000Y-126600000D01*
X175400000Y-113650000D02*
X175400000Y-126550000D01*
X117050000Y-124050000D02*
X120100000Y-124050000D01*
X90900000Y-137000000D02*
X90900000Y-129100000D01*
X117000000Y-126550000D02*
X87850000Y-126550000D01*
X120100000Y-129100000D02*
X117050000Y-129100000D01*
X87850000Y-124050000D02*
X90900000Y-124050000D01*
X90900000Y-116150000D02*
X87850000Y-116150000D01*
X120100000Y-116150000D02*
X117050000Y-116150000D01*
X146250000Y-139500000D02*
X146250000Y-137000000D01*
X117050000Y-129100000D02*
X117050000Y-126600000D01*
X149300000Y-124050000D02*
X149300000Y-116150000D01*
X175400000Y-126550000D02*
X146250000Y-126550000D01*
X146250000Y-129100000D02*
X146250000Y-126600000D01*
X120100000Y-137000000D02*
X120100000Y-129100000D01*
X175400000Y-126600000D02*
X175400000Y-139500000D01*
X117050000Y-137000000D02*
X120100000Y-137000000D01*
X117000000Y-113650000D02*
X117000000Y-126550000D01*
X87850000Y-113650000D02*
X117000000Y-113650000D01*
X146250000Y-126600000D02*
X175400000Y-126600000D01*
X149300000Y-129100000D02*
X146250000Y-129100000D01*
X146200000Y-126550000D02*
X117050000Y-126550000D01*
X87850000Y-116150000D02*
X87850000Y-113650000D01*
X87850000Y-137000000D02*
X90900000Y-137000000D01*
X90900000Y-129100000D02*
X87850000Y-129100000D01*
X146250000Y-116150000D02*
X146250000Y-113650000D01*
X117050000Y-126550000D02*
X117050000Y-124050000D01*
X87850000Y-139500000D02*
X87850000Y-137000000D01*
X146250000Y-113650000D02*
X175400000Y-113650000D01*
X146200000Y-113650000D02*
X146200000Y-126550000D01*
X120100000Y-124050000D02*
X120100000Y-116150000D01*
X87850000Y-126550000D02*
X87850000Y-124050000D01*
X146250000Y-126550000D02*
X146250000Y-124050000D01*
X117000000Y-139500000D02*
X87850000Y-139500000D01*
X117050000Y-116150000D02*
X117050000Y-113650000D01*
X90900000Y-124050000D02*
X90900000Y-116150000D01*
X149300000Y-116150000D02*
X146250000Y-116150000D01*
X146250000Y-137000000D02*
X149300000Y-137000000D01*
X146200000Y-139500000D02*
X117050000Y-139500000D01*
X87850000Y-77300000D02*
X87850000Y-74800000D01*
X149300000Y-85200000D02*
X149300000Y-77300000D01*
X175400000Y-87700000D02*
X146250000Y-87700000D01*
X117000000Y-74800000D02*
X117000000Y-87700000D01*
X87850000Y-74800000D02*
X117000000Y-74800000D01*
X146200000Y-74800000D02*
X146200000Y-87700000D01*
X117050000Y-87700000D02*
X117050000Y-85200000D01*
X117050000Y-74800000D02*
X146200000Y-74800000D01*
X90900000Y-85200000D02*
X90900000Y-77300000D01*
X120100000Y-77300000D02*
X117050000Y-77300000D01*
X146250000Y-87700000D02*
X146250000Y-85200000D01*
X117050000Y-77300000D02*
X117050000Y-74800000D01*
X146250000Y-77300000D02*
X146250000Y-74800000D01*
X120100000Y-85200000D02*
X120100000Y-77300000D01*
X175400000Y-74800000D02*
X175400000Y-87700000D01*
X117050000Y-85200000D02*
X120100000Y-85200000D01*
X146250000Y-74800000D02*
X175400000Y-74800000D01*
X149300000Y-77300000D02*
X146250000Y-77300000D01*
X87850000Y-85200000D02*
X90900000Y-85200000D01*
X90900000Y-77300000D02*
X87850000Y-77300000D01*
X87850000Y-87700000D02*
X87850000Y-85200000D01*
X117000000Y-87700000D02*
X87850000Y-87700000D01*
X146250000Y-85200000D02*
X149300000Y-85200000D01*
X146200000Y-87700000D02*
X117050000Y-87700000D01*
X146250000Y-111100000D02*
X149300000Y-111100000D01*
X117050000Y-100700000D02*
X146200000Y-100700000D01*
X175400000Y-100700000D02*
X175400000Y-113600000D01*
X117050000Y-111100000D02*
X120100000Y-111100000D01*
X117000000Y-113600000D02*
X87850000Y-113600000D01*
X87850000Y-111100000D02*
X90900000Y-111100000D01*
X90900000Y-103200000D02*
X87850000Y-103200000D01*
X120100000Y-103200000D02*
X117050000Y-103200000D01*
X149300000Y-111100000D02*
X149300000Y-103200000D01*
X175400000Y-113600000D02*
X146250000Y-113600000D01*
X117000000Y-100700000D02*
X117000000Y-113600000D01*
X87850000Y-100700000D02*
X117000000Y-100700000D01*
X146200000Y-113600000D02*
X117050000Y-113600000D01*
X87850000Y-103200000D02*
X87850000Y-100700000D01*
X146250000Y-103200000D02*
X146250000Y-100700000D01*
X117050000Y-113600000D02*
X117050000Y-111100000D01*
X146250000Y-100700000D02*
X175400000Y-100700000D01*
X146200000Y-100700000D02*
X146200000Y-113600000D01*
X120100000Y-111100000D02*
X120100000Y-103200000D01*
X87850000Y-113600000D02*
X87850000Y-111100000D01*
X146250000Y-113600000D02*
X146250000Y-111100000D01*
X117050000Y-103200000D02*
X117050000Y-100700000D01*
X90900000Y-111100000D02*
X90900000Y-103200000D01*
X149300000Y-103200000D02*
X146250000Y-103200000D01*
X146250000Y-87750000D02*
X175400000Y-87750000D01*
X146250000Y-98150000D02*
X149300000Y-98150000D01*
X149300000Y-90250000D02*
X146250000Y-90250000D01*
X175400000Y-100650000D02*
X146250000Y-100650000D01*
X146250000Y-100650000D02*
X146250000Y-98150000D01*
X175400000Y-87750000D02*
X175400000Y-100650000D01*
X149300000Y-98150000D02*
X149300000Y-90250000D01*
X146250000Y-90250000D02*
X146250000Y-87750000D01*
X146200000Y-100650000D02*
X117050000Y-100650000D01*
X117050000Y-98150000D02*
X120100000Y-98150000D01*
X120100000Y-90250000D02*
X117050000Y-90250000D01*
X146200000Y-87750000D02*
X146200000Y-100650000D01*
X117050000Y-87750000D02*
X146200000Y-87750000D01*
X117050000Y-90250000D02*
X117050000Y-87750000D01*
X117050000Y-100650000D02*
X117050000Y-98150000D01*
X120100000Y-98150000D02*
X120100000Y-90250000D01*
X117000000Y-87750000D02*
X117000000Y-100650000D01*
X87850000Y-87750000D02*
X117000000Y-87750000D01*
X87850000Y-90250000D02*
X87850000Y-87750000D01*
X90900000Y-90250000D02*
X87850000Y-90250000D01*
X90900000Y-98150000D02*
X90900000Y-90250000D01*
X87850000Y-98150000D02*
X90900000Y-98150000D01*
X87850000Y-100650000D02*
X87850000Y-98150000D01*
X117000000Y-100650000D02*
X87850000Y-100650000D01*
M02*
