M48
; DRILL file {KiCad 5.1.2} date Tue 21 May 2019 07:32:44 PM CDT
; FORMAT={-:-/ absolute / inch / decimal}
; #@! TF.CreationDate,2019-05-21T19:32:44-05:00
; #@! TF.GenerationSoftware,Kicad,Pcbnew,5.1.2
; #@! TF.FileFunction,Plated,1,2,PTH
FMAT,2
INCH
T1C0.0157
T2C0.0256
T3C0.0354
T4C0.0394
%
G90
G05
T1
X3.7087Y-2.1929
X3.7087Y-2.7028
X3.7087Y-3.2126
X3.7087Y-3.7224
X3.7087Y-4.2323
X3.7087Y-4.7421
X3.7087Y-5.252
X3.7402Y-2.0472
X3.7402Y-2.5571
X3.7402Y-3.0669
X3.7402Y-3.5768
X3.7402Y-4.0866
X3.7402Y-4.5965
X3.7402Y-5.1063
X3.9213Y-2.311
X3.9213Y-2.3543
X3.9213Y-2.8209
X3.9213Y-2.8642
X3.9213Y-3.3307
X3.9213Y-3.374
X3.9213Y-3.8406
X3.9213Y-3.8839
X3.9213Y-4.3504
X3.9213Y-4.3937
X3.9213Y-4.8602
X3.9213Y-4.9035
X3.9213Y-5.3701
X3.9213Y-5.4134
X3.9291Y-2.1063
X3.9291Y-2.2165
X3.9291Y-2.6161
X3.9291Y-2.7264
X3.9291Y-3.126
X3.9291Y-3.2362
X3.9291Y-3.6358
X3.9291Y-3.7461
X3.9291Y-4.1457
X3.9291Y-4.2559
X3.9291Y-4.6555
X3.9291Y-4.7657
X3.9291Y-5.1654
X3.9291Y-5.2756
X3.9606Y-2.2835
X3.9606Y-2.7933
X3.9606Y-3.3031
X3.9606Y-3.813
X3.9606Y-4.3228
X3.9606Y-4.8327
X3.9606Y-5.3425
X4.0039Y-2.1969
X4.0039Y-2.7067
X4.0039Y-3.2165
X4.0039Y-3.7264
X4.0039Y-4.2362
X4.0039Y-4.7461
X4.0039Y-5.2559
X4.0276Y-2.2913
X4.0276Y-2.8012
X4.0276Y-3.311
X4.0276Y-3.8209
X4.0276Y-4.3307
X4.0276Y-4.8406
X4.0276Y-5.3504
X4.0433Y-2.2047
X4.0433Y-2.7146
X4.0433Y-3.2244
X4.0433Y-3.7343
X4.0433Y-4.2441
X4.0433Y-4.7539
X4.0433Y-5.2638
X4.3819Y-2.2638
X4.3819Y-2.7736
X4.3819Y-3.2835
X4.3819Y-3.7933
X4.3819Y-4.3031
X4.3819Y-4.813
X4.3819Y-5.3228
X4.3858Y-2.1654
X4.3858Y-2.6752
X4.3858Y-3.185
X4.3858Y-3.6949
X4.3858Y-4.2047
X4.3858Y-4.7146
X4.3858Y-5.2244
X4.8583Y-2.1929
X4.8583Y-2.7028
X4.8583Y-3.2126
X4.8583Y-3.7224
X4.8583Y-4.2323
X4.8583Y-4.7421
X4.8583Y-5.252
X4.8898Y-2.0472
X4.8898Y-2.5571
X4.8898Y-3.0669
X4.8898Y-3.5768
X4.8898Y-4.0866
X4.8898Y-4.5965
X4.8898Y-5.1063
X5.0709Y-2.311
X5.0709Y-2.3543
X5.0709Y-2.8209
X5.0709Y-2.8642
X5.0709Y-3.3307
X5.0709Y-3.374
X5.0709Y-3.8406
X5.0709Y-3.8839
X5.0709Y-4.3504
X5.0709Y-4.3937
X5.0709Y-4.8602
X5.0709Y-4.9035
X5.0709Y-5.3701
X5.0709Y-5.4134
X5.0787Y-2.1063
X5.0787Y-2.2165
X5.0787Y-2.6161
X5.0787Y-2.7264
X5.0787Y-3.126
X5.0787Y-3.2362
X5.0787Y-3.6358
X5.0787Y-3.7461
X5.0787Y-4.1457
X5.0787Y-4.2559
X5.0787Y-4.6555
X5.0787Y-4.7657
X5.0787Y-5.1654
X5.0787Y-5.2756
X5.1102Y-2.2835
X5.1102Y-2.7933
X5.1102Y-3.3031
X5.1102Y-3.813
X5.1102Y-4.3228
X5.1102Y-4.8327
X5.1102Y-5.3425
X5.1535Y-2.1969
X5.1535Y-2.7067
X5.1535Y-3.2165
X5.1535Y-3.7264
X5.1535Y-4.2362
X5.1535Y-4.7461
X5.1535Y-5.2559
X5.1772Y-2.2913
X5.1772Y-2.8012
X5.1772Y-3.311
X5.1772Y-3.8209
X5.1772Y-4.3307
X5.1772Y-4.8406
X5.1772Y-5.3504
X5.1929Y-2.2047
X5.1929Y-2.7146
X5.1929Y-3.2244
X5.1929Y-3.7343
X5.1929Y-4.2441
X5.1929Y-4.7539
X5.1929Y-5.2638
X5.5315Y-2.2638
X5.5315Y-2.7736
X5.5315Y-3.2835
X5.5315Y-3.7933
X5.5315Y-4.3031
X5.5315Y-4.813
X5.5315Y-5.3228
X5.5354Y-2.1654
X5.5354Y-2.6752
X5.5354Y-3.185
X5.5354Y-3.6949
X5.5354Y-4.2047
X5.5354Y-4.7146
X5.5354Y-5.2244
X6.0079Y-2.1929
X6.0079Y-2.7028
X6.0079Y-3.2126
X6.0079Y-3.7224
X6.0079Y-4.2323
X6.0079Y-4.7421
X6.0079Y-5.252
X6.0394Y-2.0472
X6.0394Y-2.5571
X6.0394Y-3.0669
X6.0394Y-3.5768
X6.0394Y-4.0866
X6.0394Y-4.5965
X6.0394Y-5.1063
X6.2205Y-2.311
X6.2205Y-2.3543
X6.2205Y-2.8209
X6.2205Y-2.8642
X6.2205Y-3.3307
X6.2205Y-3.374
X6.2205Y-3.8406
X6.2205Y-3.8839
X6.2205Y-4.3504
X6.2205Y-4.3937
X6.2205Y-4.8602
X6.2205Y-4.9035
X6.2205Y-5.3701
X6.2205Y-5.4134
X6.2283Y-2.1063
X6.2283Y-2.2165
X6.2283Y-2.6161
X6.2283Y-2.7264
X6.2283Y-3.126
X6.2283Y-3.2362
X6.2283Y-3.6358
X6.2283Y-3.7461
X6.2283Y-4.1457
X6.2283Y-4.2559
X6.2283Y-4.6555
X6.2283Y-4.7657
X6.2283Y-5.1654
X6.2283Y-5.2756
X6.2598Y-2.2835
X6.2598Y-2.7933
X6.2598Y-3.3031
X6.2598Y-3.813
X6.2598Y-4.3228
X6.2598Y-4.8327
X6.2598Y-5.3425
X6.3031Y-2.1969
X6.3031Y-2.7067
X6.3031Y-3.2165
X6.3031Y-3.7264
X6.3031Y-4.2362
X6.3031Y-4.7461
X6.3031Y-5.2559
X6.3268Y-2.2913
X6.3268Y-2.8012
X6.3268Y-3.311
X6.3268Y-3.8209
X6.3268Y-4.3307
X6.3268Y-4.8406
X6.3268Y-5.3504
X6.3425Y-2.2047
X6.3425Y-2.7146
X6.3425Y-3.2244
X6.3425Y-3.7343
X6.3425Y-4.2441
X6.3425Y-4.7539
X6.3425Y-5.2638
X6.6811Y-2.2638
X6.6811Y-2.7736
X6.6811Y-3.2835
X6.6811Y-3.7933
X6.6811Y-4.3031
X6.6811Y-4.813
X6.6811Y-5.3228
X6.685Y-2.1654
X6.685Y-2.6752
X6.685Y-3.185
X6.685Y-3.6949
X6.685Y-4.2047
X6.685Y-4.7146
X6.685Y-5.2244
T2
X3.626Y-2.2976
X3.626Y-2.3476
X3.626Y-2.3976
X4.7756Y-5.3567
X4.7756Y-5.4067
X4.7756Y-5.4567
X4.7736Y-3.8252
X4.7736Y-3.8752
X4.7736Y-3.9252
X4.7756Y-3.3173
X4.7756Y-3.3673
X4.7756Y-3.4173
X3.626Y-4.337
X3.626Y-4.387
X3.626Y-4.437
X5.9232Y-3.8252
X5.9232Y-3.8752
X5.9232Y-3.9252
X4.7756Y-2.2976
X4.7756Y-2.3476
X4.7756Y-2.3976
X5.9252Y-5.3567
X5.9252Y-5.4067
X5.9252Y-5.4567
X5.9252Y-3.3173
X5.9252Y-3.3673
X5.9252Y-3.4173
X5.9252Y-4.8469
X5.9252Y-4.8969
X5.9252Y-4.9469
X4.7756Y-4.8469
X4.7756Y-4.8969
X4.7756Y-4.9469
X3.624Y-3.8252
X3.624Y-3.8752
X3.624Y-3.9252
X3.626Y-5.3567
X3.626Y-5.4067
X3.626Y-5.4567
X3.626Y-3.3173
X3.626Y-3.3673
X3.626Y-3.4173
X4.7756Y-4.337
X4.7756Y-4.387
X4.7756Y-4.437
X5.9252Y-2.8075
X5.9252Y-2.8575
X5.9252Y-2.9075
X4.7756Y-2.8075
X4.7756Y-2.8575
X4.7756Y-2.9075
X3.626Y-4.8469
X3.626Y-4.8969
X3.626Y-4.9469
X5.9252Y-4.337
X5.9252Y-4.387
X5.9252Y-4.437
X3.626Y-2.8075
X3.626Y-2.8575
X3.626Y-2.9075
X5.9252Y-2.2976
X5.9252Y-2.3476
X5.9252Y-2.3976
T4
X4.6732Y-3.9094
X4.778Y-1.9843
X4.878Y-1.9843
X4.978Y-1.9843
X5.078Y-1.9843
X5.178Y-1.9843
X3.5256Y-2.3819
X3.5256Y-4.9311
X5.9295Y-5.0453
X6.0295Y-5.0453
X6.1295Y-5.0453
X6.2295Y-5.0453
X6.3295Y-5.0453
X4.6752Y-2.8917
X4.778Y-4.5335
X4.878Y-4.5335
X4.978Y-4.5335
X5.078Y-4.5335
X5.178Y-4.5335
X5.8248Y-4.9311
X4.778Y-2.4941
X4.878Y-2.4941
X4.978Y-2.4941
X5.078Y-2.4941
X5.178Y-2.4941
X3.5256Y-2.4862
X5.8248Y-2.9961
X3.6283Y-3.5138
X3.7283Y-3.5138
X3.8283Y-3.5138
X3.9283Y-3.5138
X4.0283Y-3.5138
X3.6283Y-1.9843
X3.7283Y-1.9843
X3.8283Y-1.9843
X3.9283Y-1.9843
X4.0283Y-1.9843
X5.9276Y-3.5138
X6.0276Y-3.5138
X6.1276Y-3.5138
X6.2276Y-3.5138
X6.3276Y-3.5138
X3.5256Y-3.4016
X4.6752Y-4.0157
X4.778Y-3.0039
X4.878Y-3.0039
X4.978Y-3.0039
X5.078Y-3.0039
X5.178Y-3.0039
X3.5256Y-3.5059
X5.8228Y-3.9094
X3.5256Y-2.9961
X4.7799Y-5.0453
X4.8799Y-5.0453
X4.9799Y-5.0453
X5.0799Y-5.0453
X5.1799Y-5.0453
X5.8248Y-4.0157
X4.6752Y-5.4409
X4.6772Y-5.0374
X4.6752Y-2.9961
X4.6752Y-4.4213
X3.6303Y-5.0453
X3.7303Y-5.0453
X3.8303Y-5.0453
X3.9303Y-5.0453
X4.0303Y-5.0453
X5.8248Y-3.5059
X4.6752Y-4.5256
X4.6752Y-2.4862
X3.6283Y-4.5335
X3.7283Y-4.5335
X3.8283Y-4.5335
X3.9283Y-4.5335
X4.0283Y-4.5335
X5.8248Y-2.4862
X3.5276Y-5.0374
X3.5256Y-1.9764
X3.5236Y-3.9094
X3.5256Y-5.4409
X5.9276Y-1.9843
X6.0276Y-1.9843
X6.1276Y-1.9843
X6.2276Y-1.9843
X6.3276Y-1.9843
X5.8248Y-3.4016
X5.8248Y-5.4409
X3.5256Y-4.4213
X5.8248Y-1.9764
X4.778Y-4.0236
X4.878Y-4.0236
X4.978Y-4.0236
X5.078Y-4.0236
X5.178Y-4.0236
X5.9276Y-2.4941
X6.0276Y-2.4941
X6.1276Y-2.4941
X6.2276Y-2.4941
X6.3276Y-2.4941
X4.6752Y-1.9764
X5.8248Y-2.3819
X4.6752Y-4.9311
X5.9276Y-4.5335
X6.0276Y-4.5335
X6.1276Y-4.5335
X6.2276Y-4.5335
X6.3276Y-4.5335
X5.8248Y-4.4213
X3.6283Y-3.0039
X3.7283Y-3.0039
X3.8283Y-3.0039
X3.9283Y-3.0039
X4.0283Y-3.0039
X3.5256Y-2.8917
X5.8268Y-5.0374
X4.6752Y-3.5059
X3.5256Y-4.0157
X4.778Y-3.5138
X4.878Y-3.5138
X4.978Y-3.5138
X5.078Y-3.5138
X5.178Y-3.5138
X5.8248Y-2.8917
X5.9276Y-3.0039
X6.0276Y-3.0039
X6.1276Y-3.0039
X6.2276Y-3.0039
X6.3276Y-3.0039
X3.6283Y-2.4941
X3.7283Y-2.4941
X3.8283Y-2.4941
X3.9283Y-2.4941
X4.0283Y-2.4941
X3.5256Y-4.5256
X5.9276Y-4.0236
X6.0276Y-4.0236
X6.1276Y-4.0236
X6.2276Y-4.0236
X6.3276Y-4.0236
X3.6283Y-4.0236
X3.7283Y-4.0236
X3.8283Y-4.0236
X3.9283Y-4.0236
X4.0283Y-4.0236
X4.6752Y-3.4016
X4.6752Y-2.3819
X5.8248Y-4.5256
T3
G00X5.6043Y-5.0138
M15
G01X5.6673Y-5.0138
M16
G05
G00X5.6043Y-5.4626
M15
G01X5.6673Y-5.4626
M16
G05
G00X6.752Y-2.9724
M15
G01X6.815Y-2.9724
M16
G05
G00X6.752Y-3.4213
M15
G01X6.815Y-3.4213
M16
G05
G00X5.6024Y-3.9921
M15
G01X5.6654Y-3.9921
M16
G05
G00X5.6024Y-4.4409
M15
G01X5.6654Y-4.4409
M16
G05
G00X5.6024Y-2.4626
M15
G01X5.6654Y-2.4626
M16
G05
G00X5.6024Y-2.9114
M15
G01X5.6654Y-2.9114
M16
G05
G00X5.6024Y-1.9528
M15
G01X5.6654Y-1.9528
M16
G05
G00X5.6024Y-2.4016
M15
G01X5.6654Y-2.4016
M16
G05
G00X6.752Y-2.4626
M15
G01X6.815Y-2.4626
M16
G05
G00X6.752Y-2.9114
M15
G01X6.815Y-2.9114
M16
G05
G00X4.4508Y-3.4803
M15
G01X4.5138Y-3.4803
M16
G05
G00X4.4508Y-3.9291
M15
G01X4.5138Y-3.9291
M16
G05
G00X5.6004Y-3.4803
M15
G01X5.6634Y-3.4803
M16
G05
G00X5.6004Y-3.9291
M15
G01X5.6634Y-3.9291
M16
G05
G00X6.752Y-1.9528
M15
G01X6.815Y-1.9528
M16
G05
G00X6.752Y-2.4016
M15
G01X6.815Y-2.4016
M16
G05
G00X6.75Y-3.4803
M15
G01X6.813Y-3.4803
M16
G05
G00X6.75Y-3.9291
M15
G01X6.813Y-3.9291
M16
G05
G00X4.4528Y-1.9528
M15
G01X4.5157Y-1.9528
M16
G05
G00X4.4528Y-2.4016
M15
G01X4.5157Y-2.4016
M16
G05
G00X6.752Y-3.9921
M15
G01X6.815Y-3.9921
M16
G05
G00X6.752Y-4.4409
M15
G01X6.815Y-4.4409
M16
G05
G00X4.4528Y-2.4626
M15
G01X4.5157Y-2.4626
M16
G05
G00X4.4528Y-2.9114
M15
G01X4.5157Y-2.9114
M16
G05
G00X5.6024Y-4.502
M15
G01X5.6654Y-4.502
M16
G05
G00X5.6024Y-4.9508
M15
G01X5.6654Y-4.9508
M16
G05
G00X4.4528Y-3.9921
M15
G01X4.5157Y-3.9921
M16
G05
G00X4.4528Y-4.4409
M15
G01X4.5157Y-4.4409
M16
G05
G00X6.7539Y-5.0138
M15
G01X6.8169Y-5.0138
M16
G05
G00X6.7539Y-5.4626
M15
G01X6.8169Y-5.4626
M16
G05
G00X6.752Y-4.502
M15
G01X6.815Y-4.502
M16
G05
G00X6.752Y-4.9508
M15
G01X6.815Y-4.9508
M16
G05
G00X4.4528Y-4.502
M15
G01X4.5157Y-4.502
M16
G05
G00X4.4528Y-4.9508
M15
G01X4.5157Y-4.9508
M16
G05
G00X5.6024Y-2.9724
M15
G01X5.6654Y-2.9724
M16
G05
G00X5.6024Y-3.4213
M15
G01X5.6654Y-3.4213
M16
G05
G00X4.4547Y-5.0138
M15
G01X4.5177Y-5.0138
M16
G05
G00X4.4547Y-5.4626
M15
G01X4.5177Y-5.4626
M16
G05
G00X4.4528Y-2.9724
M15
G01X4.5157Y-2.9724
M16
G05
G00X4.4528Y-3.4213
M15
G01X4.5157Y-3.4213
M16
G05
T0
M30
